<svg width="178" height="42" viewBox="0 0 178 42" fill="none" xmlns="http://www.w3.org/2000/svg">
<path d="M6.68982 9.5924L0.375359 10.9381L6.70129 12.7899C7.09477 12.9078 7.44953 13.1289 7.72865 13.4303C8.00777 13.7317 8.20108 14.1023 8.28853 14.5036L9.86426 22.0717L11.5665 14.6417C11.6663 14.2269 11.8794 13.8481 12.182 13.5475C12.4846 13.2469 12.8649 13.0363 13.2803 12.9394L19.6062 11.5017L13.0962 9.67292C12.7076 9.54252 12.3609 9.31064 12.0919 9.00124C11.823 8.69185 11.6416 8.31619 11.5665 7.91316L10.1173 0.621094L8.47257 7.86715C8.37136 8.29503 8.14966 8.68495 7.8337 8.99071C7.51775 9.29648 7.12078 9.50528 6.68982 9.5924Z" fill="#0075FF"/>
<path d="M15.6457 30.1071L9.9904 31.3123L15.656 32.9708C16.0084 33.0764 16.3261 33.2744 16.5761 33.5443C16.8261 33.8143 16.9992 34.1462 17.0775 34.5056L18.4888 41.2837L20.0133 34.6292C20.1027 34.2578 20.2935 33.9185 20.5646 33.6493C20.8356 33.3801 21.1761 33.1915 21.5482 33.1047L27.2137 31.817L21.3833 30.1792C21.0353 30.0624 20.7247 29.8547 20.4839 29.5776C20.243 29.3005 20.0805 28.9641 20.0133 28.6031L18.7154 22.0723L17.2423 28.5619C17.1517 28.9451 16.9531 29.2943 16.6702 29.5682C16.3872 29.842 16.0317 30.029 15.6457 30.1071Z" fill="#0075FF"/>
<path d="M28.4683 14.3658L18.794 16.4276L28.4859 19.2646C29.0887 19.4453 29.6322 19.7841 30.0599 20.2458C30.4875 20.7075 30.7837 21.2753 30.9177 21.8902L33.3318 33.4852L35.9398 22.1017C36.0926 21.4663 36.4191 20.8859 36.8828 20.4253C37.3464 19.9648 37.929 19.6422 38.5654 19.4937L48.2572 17.291L38.2834 14.4892C37.688 14.2894 37.1568 13.9341 36.7447 13.4601C36.3327 12.9861 36.0548 12.4106 35.9398 11.7931L33.7195 0.621094L31.1996 11.7226C31.0446 12.3781 30.7049 12.9755 30.2208 13.444C29.7367 13.9125 29.1286 14.2324 28.4683 14.3658Z" fill="#0075FF"/>
<path d="M56.5205 19.7957C56.5205 18.2554 56.8978 16.8329 57.6522 15.5284C58.4223 14.2238 59.4597 13.1943 60.7643 12.4399C62.0688 11.6697 63.4912 11.2846 65.0316 11.2846C66.6033 11.2846 68.0572 11.6933 69.3932 12.5106C70.7291 13.3122 71.7586 14.381 72.4816 15.717L69.7704 17.1551C69.2989 16.3221 68.6387 15.6541 67.79 15.1511C66.9412 14.6325 66.0218 14.3731 65.0316 14.3731C64.0571 14.3731 63.1455 14.6168 62.2967 15.104C61.4637 15.5912 60.8035 16.2514 60.3163 17.0844C59.8291 17.9174 59.5854 18.8212 59.5854 19.7957C59.5854 20.7702 59.8291 21.6739 60.3163 22.5069C60.8035 23.34 61.4637 24.0001 62.2967 24.4873C63.1455 24.9746 64.0571 25.2182 65.0316 25.2182C66.0532 25.2182 66.9805 24.9589 67.8136 24.4402C68.6623 23.9215 69.3224 23.2299 69.794 22.3655L72.5052 23.8508C71.7822 25.2025 70.7527 26.287 69.4167 27.1043C68.0807 27.9059 66.619 28.3067 65.0316 28.3067C63.4912 28.3067 62.0688 27.9295 60.7643 27.175C59.4597 26.4049 58.4223 25.3675 57.6522 24.063C56.8978 22.7584 56.5205 21.336 56.5205 19.7957ZM77.6701 24.6759C77.6701 24.9274 77.7329 25.1082 77.8587 25.2182C77.9844 25.3282 78.1809 25.3832 78.4481 25.3832C78.6524 25.3832 78.896 25.3597 79.179 25.3125V28.0002C78.5974 28.0945 78.0552 28.1417 77.5522 28.1417C76.6406 28.1417 75.9412 27.9059 75.4539 27.4344C74.9824 26.9471 74.7466 26.0905 74.7466 24.8646V11.4968H77.6701V24.6759ZM86.3653 15.9056C87.497 15.9056 88.5107 16.1885 89.4066 16.7543C90.3182 17.3044 91.0255 18.051 91.5285 18.9941C92.0314 19.9371 92.2829 20.9823 92.2829 22.1297C92.2829 22.5069 92.2515 22.8527 92.1886 23.1671H83.0882C83.324 24.0001 83.7405 24.6524 84.3377 25.1239C84.935 25.5797 85.6973 25.8076 86.6246 25.8076C87.1905 25.8076 87.7327 25.6819 88.2514 25.4304C88.7858 25.1789 89.1866 24.8567 89.4538 24.4638L91.6935 25.784C91.1434 26.6013 90.4283 27.23 89.5481 27.6701C88.6836 28.0945 87.6856 28.3067 86.5539 28.3067C85.2965 28.3067 84.1806 28.0395 83.2061 27.5051C82.2316 26.9707 81.4771 26.232 80.9428 25.2889C80.4241 24.3459 80.1647 23.285 80.1647 22.1061C80.1647 20.943 80.4241 19.89 80.9428 18.9469C81.4771 18.0039 82.2159 17.2652 83.1589 16.7308C84.102 16.1806 85.1708 15.9056 86.3653 15.9056ZM89.5481 20.8802C89.4223 20.1257 89.0687 19.5363 88.4872 19.112C87.9213 18.6719 87.2062 18.4518 86.3417 18.4518C85.7445 18.4518 85.1943 18.5618 84.6914 18.7819C84.2041 19.0019 83.8112 19.3006 83.5126 19.6778C83.2139 20.055 83.0568 20.4558 83.041 20.8802H89.5481ZM103.374 16.2121H106.298V28.0002H103.374V26.845C102.824 27.3165 102.219 27.6859 101.559 27.953C100.915 28.2045 100.231 28.3303 99.5079 28.3303C98.3134 28.3303 97.2682 28.0631 96.3723 27.5287C95.4764 26.9943 94.7848 26.2556 94.2976 25.3125C93.8261 24.3695 93.5903 23.3085 93.5903 22.1297C93.5903 20.9509 93.8261 19.89 94.2976 18.9469C94.7848 18.0039 95.4764 17.2652 96.3723 16.7308C97.2682 16.1806 98.3134 15.9056 99.5079 15.9056C100.231 15.9056 100.915 16.0392 101.559 16.3064C102.219 16.5579 102.824 16.9194 103.374 17.3909V16.2121ZM99.8852 25.5247C100.53 25.5247 101.111 25.3832 101.63 25.1003C102.164 24.8017 102.581 24.393 102.879 23.8744C103.194 23.3557 103.351 22.7663 103.351 22.1061C103.351 21.1159 103.013 20.3065 102.337 19.6778C101.677 19.0491 100.86 18.7347 99.8852 18.7347C98.895 18.7347 98.0777 19.0569 97.4332 19.7014C96.8045 20.3301 96.4902 21.1395 96.4902 22.1297C96.4902 23.1199 96.8045 23.9372 97.4332 24.5816C98.0777 25.2103 98.895 25.5247 99.8852 25.5247ZM115.294 15.9056C115.985 15.9056 116.685 16.0549 117.392 16.3535C118.115 16.6365 118.728 17.1551 119.231 17.9096C119.749 18.664 120.009 19.6778 120.009 20.9509V28.0002H117.085V20.9509C117.085 20.0707 116.834 19.442 116.331 19.0648C115.844 18.6719 115.27 18.4754 114.61 18.4754C113.95 18.4754 113.384 18.7112 112.912 19.1827C112.457 19.6385 112.229 20.3772 112.229 21.3989V28.0002H109.305V16.2121H112.229V17.2023C112.653 16.8093 113.125 16.495 113.643 16.2592C114.162 16.0235 114.712 15.9056 115.294 15.9056ZM123.845 14.2553C123.295 14.2553 122.863 14.1059 122.549 13.8073C122.234 13.5087 122.077 13.1 122.077 12.5813C122.077 12.0469 122.234 11.6304 122.549 11.3318C122.863 11.0332 123.295 10.8838 123.845 10.8838C124.396 10.8838 124.828 11.0332 125.142 11.3318C125.456 11.6304 125.614 12.0469 125.614 12.5813C125.614 13.0843 125.449 13.493 125.119 13.8073C124.804 14.1059 124.38 14.2553 123.845 14.2553ZM122.36 28.0002V16.2121H125.284V28.0002H122.36ZM134.196 15.9056C134.888 15.9056 135.587 16.0549 136.294 16.3535C137.017 16.6365 137.63 17.1551 138.133 17.9096C138.652 18.664 138.911 19.6778 138.911 20.9509V28.0002H135.988V20.9509C135.988 20.0707 135.736 19.442 135.233 19.0648C134.746 18.6719 134.172 18.4754 133.512 18.4754C132.852 18.4754 132.286 18.7112 131.815 19.1827C131.359 19.6385 131.131 20.3772 131.131 21.3989V28.0002H128.208V16.2121H131.131V17.2023C131.555 16.8093 132.027 16.495 132.546 16.2592C133.064 16.0235 133.614 15.9056 134.196 15.9056ZM150.504 16.2121H153.428V27.4108C153.428 28.5267 153.145 29.5091 152.579 30.3578C152.029 31.2066 151.259 31.8588 150.269 32.3147C149.278 32.7862 148.17 33.0219 146.944 33.0219C145.577 33.0219 144.335 32.7547 143.219 32.2203C142.103 31.7017 141.318 31.018 140.862 30.1692L143.361 28.7311C143.597 29.1869 144.037 29.5641 144.681 29.8627C145.326 30.1771 146.104 30.3342 147.015 30.3342C148.021 30.3342 148.854 30.0592 149.514 29.5091C150.174 28.9747 150.504 28.2753 150.504 27.4108V26.8685C149.97 27.3401 149.373 27.7016 148.713 27.953C148.053 28.2045 147.369 28.3303 146.662 28.3303C145.467 28.3303 144.422 28.0631 143.526 27.5287C142.63 26.9943 141.938 26.2556 141.451 25.3125C140.98 24.3695 140.744 23.3085 140.744 22.1297C140.744 20.9509 140.98 19.89 141.451 18.9469C141.938 18.0039 142.63 17.2652 143.526 16.7308C144.422 16.1806 145.467 15.9056 146.662 15.9056C147.369 15.9056 148.045 16.0392 148.689 16.3064C149.349 16.5579 149.954 16.9115 150.504 17.3673V16.2121ZM147.039 25.5247C147.683 25.5247 148.265 25.3832 148.783 25.1003C149.318 24.8017 149.734 24.393 150.033 23.8744C150.347 23.3557 150.504 22.7663 150.504 22.1061C150.504 21.1159 150.167 20.3065 149.491 19.6778C148.831 19.0491 148.013 18.7347 147.039 18.7347C146.049 18.7347 145.231 19.0569 144.587 19.7014C143.958 20.3301 143.644 21.1395 143.644 22.1297C143.644 23.1199 143.958 23.9372 144.587 24.5816C145.231 25.2103 146.049 25.5247 147.039 25.5247ZM171.072 19.7249L176.423 28.0002H172.746L168.926 22.0826L165.107 28.0002H161.429L166.781 19.7249L161.452 11.4968H165.13L168.926 17.3673L172.722 11.4968H176.4L171.072 19.7249Z" fill="#211F54"/>
</svg>
